# xmcd
#
# Track frame offsets:
#	150
#	11430
#	21234
#	32173
#	40807
#	51029
#	62088
#	73794
#	83563
#	90726
#	101302
#	112593
#	122684
#	134048
#	144418
#	156921
#	168239
#	179351
#	189866
#	200562
#	209816
#	220651
#	233541
#	243958
#	256092
#
# Disc length: 3560 seconds
#
# Revision: 1
# Processed by: cddbd v1.5.2PL0 Copyright (c) Steve Scherf et al.
# Submitted via: audiograbber 1.83.01
#
DISCID=4f0de619
DTITLE=Various Artist - Satellite Fever and Asiatic Flu   SATELLITE 
DYEAR=1900
DGENRE=Rock'n'Roll
TTITLE0=Paul Perryman - Satellite Fever Asiatic Flu      Duke 181   1958
TTITLE1=Timmie Rogers - Take Me To Your Leader     Cameo 131   1958
TTITLE2=Monitors - Rock and Roll Fever     Specialty  622   1957
TTITLE3=Bob and Gerry  - Ghost Satellite   INSTRUMENTAL    Rendezvous 100   1958
TTITLE4=Johnny Greco - Rocket Ride   Pageant 602   1963
TTITLE5=Marty Wilson and The Strat-O-Lites - Super Sonic   INSTRUMENTAL  Decca 9-
TTITLE5=30544   1958
TTITLE6=Equadors - Sputnik Dance     RCA EPA 4286   1958
TTITLE7=Ray Sawyer - Rockin' Satellite        Sandy 1030   1960
TTITLE8=Little Ernest Tucker - Gonna Get Me A Satellite       Fortune 843   195
TTITLE8=8
TTITLE9=Roosevelt Sykes - Sputnik Baby     House Of Sound 1006   1957
TTITLE10=Jimmie Haskell - Asteroid Hop  INSTRUMENTAL    Imperial LP 9068   1959
TTITLE11=Lil Randolph - Satellite Love       Chock 103   1958
TTITLE12=Allen Bradley Quintet - Space Race INSTRUMENTAL     Okey 4-7100   1958
TTITLE13=Jack Owens - Martian Love Cal (A Hand Jive)     Orbit 520   1958
TTITLE14=Spacemen - Blast Off  INSTRUMENTAL     Felsted 8578   1959
TTITLE15=Bob Roubian - Rocket To The Moon   Prep 101   1957
TTITLE16=Danny Overbea - Space Time      Federal 12324   1958
TTITLE17=Ebe Sneezer aka John D. Loudermilk - Asiatic Flu     Colonial 436   19
TTITLE17=57
TTITLE18=Huey Smith - Tu-Ber-Cu-Lucas and Sinus Blues     Ace 571    1959
TTITLE19=Buel Moore and The Garnets - Sputnik No. 3       Vita 174   1958
TTITLE20=Ravens  - Hole In The Middle Of The Moon     Top Rank 2016   1959
TTITLE21=Glenn Mooney - Beep Alonia     Fraternity 922   1964
TTITLE22=Space-Men - Martian Chant     Campus 105
TTITLE23=Gene and Al  With The Spacemonks - Able and Baker     Ace 568   1959
TTITLE24=Leon Evans and His Combo - Satellite Beep Bop       De' Besth 111   1958
EXTD=
EXTT0=
EXTT1=
EXTT2=
EXTT3=
EXTT4=
EXTT5=
EXTT6=
EXTT7=
EXTT8=
EXTT9=
EXTT10=
EXTT11=
EXTT12=
EXTT13=
EXTT14=
EXTT15=
EXTT16=
EXTT17=
EXTT18=
EXTT19=
EXTT20=
EXTT21=
EXTT22=
EXTT23=
EXTT24=
PLAYORDER=
